#!OML:ASF F:\VICON\USERDATA\INSTALL\rory3\rory3.ASF
:FULLY-SPECIFIED
:DEGREES
224
root 2.97597 18.3019 6.87676 -176.893 -18.3164 180.739
lowerback 9.90763 5.06603 4.83228
upperback 1.96539 7.0903 -0.036038
thorax -2.87809 3.43193 -3.55549
lowerneck -20.7935 -10.1667 -12.0536
upperneck 22.5185 -12.7926 7.54714
head 12.1509 -5.96155 2.5435
rclavicle -4.4329e-014 1.07344e-014
rhumerus 45.202 -0.883096 -40.2098
rradius 30.3979
rwrist 48.9414
rhand -34.0908 -4.88987
rfingers 7.12502
rthumb -7.26717 -34.7451
lclavicle -4.4329e-014 1.07344e-014
lhumerus -31.2769 0.166822 84.5605
lradius 49.7268
lwrist -4.05651
lhand -12.9832 26.0935
lfingers 7.12502
lthumb 13.1094 55.6615
rfemur -1.22271 -7.62824 28.6027
rtibia -2.38542e-015
rfoot -2.42261 -8.93984
rtoes 22.613
lfemur -69.359 -1.52645 -25.7246
ltibia 81.9103
lfoot -23.0085 -11.5543
ltoes -23.2428
225
root 2.98242 18.315 6.83567 -176.976 -18.3939 180.729
lowerback 10.1376 5.12795 4.85622
upperback 1.92211 7.18492 -0.145336
thorax -3.02391 3.47321 -3.7175
lowerneck -20.6483 -10.2236 -12.1129
upperneck 22.4731 -12.9276 7.73312
head 12.1403 -6.00996 2.60068
rclavicle -1.21557e-013 -1.27222e-014
rhumerus 45.1155 -1.30431 -40.2737
rradius 29.9681
rwrist 49.0988
rhand -33.7586 -4.57776
rfingers 7.12502
rthumb -6.94658 -34.4438
lclavicle -1.21557e-013 -1.27222e-014
lhumerus -31.5805 0.213123 84.2759
lradius 50.1598
lwrist -3.98608
lhand -12.8402 26.0532
lfingers 7.12502
lthumb 13.2472 55.6122
rfemur -0.992231 -7.70222 28.6321
rtibia -8.74653e-015
rfoot -2.54079 -8.90734
rtoes 22.6441
lfemur -69.9388 -1.72784 -25.9041
ltibia 81.6824
lfoot -23.1128 -11.6326
ltoes -23.3263
226
root 2.98787 18.3241 6.79488 -177.036 -18.4555 180.735
lowerback 10.3356 5.19455 4.86843
upperback 1.87417 7.28439 -0.220934
thorax -3.16209 3.51706 -3.83664
lowerneck -20.4842 -10.285 -12.1787
upperneck 22.3804 -13.0437 7.85844
head 12.1016 -6.0578 2.6409
rclavicle 9.16397e-014 -1.19271e-015
rhumerus 45.0296 -1.6784 -40.275
rradius 29.6238
rwrist 49.1924
rhand -33.3587 -4.48558
rfingers 7.12502
rthumb -6.56048 -34.364
lclavicle 9.16397e-014 -1.19271e-015
lhumerus -31.8675 0.163454 84.0539
lradius 50.5551
lwrist -4.03613
lhand -12.7237 25.7395
lfingers 7.12502
lthumb 13.3595 55.2912
rfemur -0.790142 -7.75582 28.6766
rtibia 6.36111e-015
rfoot -2.63601 -8.84791
rtoes 22.6567
lfemur -70.4909 -1.96352 -26.0195
ltibia 81.4489
lfoot -23.0702 -11.6268
ltoes -23.267
227
root 2.99068 18.3208 6.75361 -177.078 -18.6132 180.887
lowerback 10.382 5.24129 4.99998
upperback 1.85163 7.36422 -0.221598
thorax -3.18664 3.55433 -3.92359
lowerneck -20.3519 -10.3693 -12.1375
upperneck 22.2769 -13.154 7.76492
head 12.0376 -6.11795 2.58359
rclavicle -7.92157e-014 1.43125e-014
rhumerus 44.8991 -2.01713 -40.135
rradius 29.3497
rwrist 49.1147
rhand -32.9197 -4.42884
rfingers 7.12502
rthumb -6.13673 -34.32
lclavicle -7.92157e-014 1.43125e-014
lhumerus -32.0853 0.130914 83.9441
lradius 50.8792
lwrist -4.237
lhand -12.6948 25.3984
lfingers 7.12502
lthumb 13.3874 54.9483
rfemur -0.677975 -7.88736 28.877
rtibia -9.93923e-015
rfoot -2.73401 -8.77415
rtoes 22.7409
lfemur -71.1258 -2.2373 -25.9857
ltibia 81.249
lfoot -22.8414 -11.6218
ltoes -22.9715
228
root 2.98938 18.3178 6.71 -177.1 -18.7662 180.949
lowerback 10.3091 5.29541 5.08017
upperback 1.91442 7.43591 -0.220853
thorax -3.06338 3.59383 -3.96114
lowerneck -20.2689 -10.4537 -12.237
upperneck 22.1412 -13.233 7.77073
head 11.9867 -6.16088 2.58932
rclavicle 5.91384e-014 -1.07344e-014
rhumerus 44.861 -2.45857 -40.0389
rradius 29.0627
rwrist 49.0942
rhand -32.3882 -4.1561
rfingers 7.12502
rthumb -5.62357 -34.0615
lclavicle 5.91384e-014 -1.07344e-014
lhumerus -32.1457 0.228686 83.8794
lradius 51.1371
lwrist -4.44486
lhand -12.7222 25.3424
lfingers 7.12502
lthumb 13.3609 54.894
rfemur -0.573071 -8.02173 28.9628
rtibia -3.18055e-015
rfoot -2.70095 -8.68661
rtoes 22.358
lfemur -71.612 -2.55397 -26.0065
ltibia 80.9936
lfoot -22.5349 -11.6598
ltoes -22.2385
229
root 2.98567 18.3247 6.66363 -177.141 -18.7764 180.887
lowerback 10.2942 5.38869 5.07114
upperback 1.99335 7.54898 -0.285599
thorax -2.95334 3.65419 -4.02676
lowerneck -20.0312 -10.5342 -12.3613
upperneck 21.9442 -13.3484 7.88432
head 11.898 -6.216 2.63782
rclavicle -1.24042e-013 -4.37326e-015
rhumerus 44.8553 -3.01131 -40.1562
rradius 28.7203
rwrist 49.1949
rhand -31.7933 -3.70414
rfingers 7.12502
rthumb -5.04916 -33.624
lclavicle -1.24042e-013 -4.37326e-015
lhumerus -32.1044 0.389599 83.7786
lradius 51.3089
lwrist -4.6905
lhand -12.7693 25.5622
lfingers 7.12502
lthumb 13.3156 55.1168
rfemur -0.376356 -8.03159 28.8935
rtibia -2.38542e-015
rfoot -2.67423 -8.60266
rtoes 21.4726
lfemur -71.8832 -2.79366 -26.1019
ltibia 80.699
lfoot -22.2998 -11.6622
ltoes -21.3655
230
root 2.98695 18.3256 6.61761 -177.295 -18.7893 180.968
lowerback 10.4364 5.44859 5.14494
upperback 2.03795 7.63685 -0.305655
thorax -2.96318 3.69559 -4.10891
lowerneck -19.8136 -10.6035 -12.4253
upperneck 21.7812 -13.4575 7.95447
head 11.8176 -6.2686 2.66147
rclavicle -5.60573e-014 5.56597e-015
rhumerus 44.7234 -3.34814 -40.0977
rradius 28.6242
rwrist 48.9134
rhand -31.014 -3.36226
rfingers 7.12502
rthumb -4.29666 -33.2987
lclavicle -5.60573e-014 5.56597e-015
lhumerus -32.2428 0.372834 83.6569
lradius 51.7066
lwrist -4.8404
lhand -13.1229 25.9573
lfingers 7.12502
lthumb 12.9747 55.5338
rfemur -0.0853001 -8.04584 28.989
rtibia -3.97569e-015
rfoot -2.80049 -8.52284
rtoes 21.332
lfemur -72.087 -2.89633 -26.099
ltibia 80.3763
lfoot -21.9669 -11.5683
ltoes -20.4917
231
root 2.98926 18.3105 6.57276 -177.468 -18.9069 181.317
lowerback 10.4824 5.44851 5.39673
upperback 2.08681 7.663 -0.203189
thorax -2.91526 3.70671 -4.14402
lowerneck -20.2555 -10.5657 -12.2419
upperneck 22.0529 -13.3357 7.64078
head 11.9512 -6.21907 2.52306
rclavicle 1.80894e-014 -3.97569e-016
rhumerus 44.5763 -3.28291 -39.4589
rradius 28.8233
rwrist 47.8769
rhand -30.0708 -3.3577
rfingers 7.12502
rthumb -3.38586 -33.3106
lclavicle 1.80894e-014 -3.97569e-016
lhumerus -32.4411 0.478974 83.5823
lradius 52.2537
lwrist -5.01669
lhand -13.108 26.2557
lfingers 7.12502
lthumb 12.9891 55.8313
rfemur 0.132422 -8.13968 29.3908
rtibia -1.35174e-014
rfoot -2.97366 -8.4301
rtoes 21.2843
lfemur -72.4207 -3.04969 -25.8277
ltibia 80.059
lfoot -21.4495 -11.4633
ltoes -19.7249
232
root 2.99153 18.302 6.5306 -177.517 -18.9947 181.396
lowerback 10.5096 5.46635 5.40177
upperback 2.12206 7.68531 -0.183998
thorax -2.89283 3.71798 -4.12972
lowerneck -20.6269 -10.5314 -12.0084
upperneck 22.268 -13.2221 7.27072
head 12.043 -6.17914 2.35736
rclavicle 1.67973e-014 3.97569e-016
rhumerus 44.5587 -3.56149 -39.4698
rradius 28.7722
rwrist 47.3871
rhand -29.0214 -3.23671
rfingers 7.12502
rthumb -2.37237 -33.2033
lclavicle 1.67973e-014 3.97569e-016
lhumerus -32.6042 0.625409 83.4816
lradius 52.728
lwrist -5.24837
lhand -12.9635 26.2268
lfingers 7.12502
lthumb 13.1284 55.7935
rfemur 0.285807 -8.21207 29.5052
rtibia 1.59028e-015
rfoot -3.02788 -8.41098
rtoes 20.9189
lfemur -72.6401 -3.25752 -25.7544
ltibia 79.6824
lfoot -20.9333 -11.5956
ltoes -19.0052
233
root 2.99814 18.2961 6.48909 -177.49 -18.9619 181.324
lowerback 10.6005 5.54814 5.19365
upperback 2.077 7.77888 -0.221036
thorax -3.00306 3.7619 -4.07835
lowerneck -20.5166 -10.5295 -11.8908
upperneck 22.2064 -13.2261 7.13558
head 11.9781 -6.1913 2.29392
rclavicle -7.99114e-014 -3.97569e-016
rhumerus 44.6181 -4.31856 -40.3947
rradius 28.3556
rwrist 47.8706
rhand -28.3974 -2.89881
rfingers 7.12502
rthumb -1.76969 -32.8712
lclavicle -7.99114e-014 -3.97569e-016
lhumerus -32.8202 0.599684 83.3612
lradius 53.0983
lwrist -5.4748
lhand -13.0199 26.0394
lfingers 7.12502
lthumb 13.0741 55.6096
rfemur 0.396194 -8.1658 29.4961
rtibia -7.95139e-015
rfoot -2.95637 -8.43767
rtoes 20.056
lfemur -72.7409 -3.31911 -25.8138
ltibia 79.3039
lfoot -20.4732 -11.8321
ltoes -19.6959
234
root 3.00443 18.2846 6.44439 -177.436 -18.9612 181.272
lowerback 10.5992 5.61919 4.97941
upperback 2.04803 7.85305 -0.218983
thorax -3.05458 3.79889 -3.97001
lowerneck -20.361 -10.5515 -12.0692
upperneck 22.1021 -13.238 7.24079
head 11.9324 -6.20321 2.3644
rclavicle 6.7388e-014 9.54166e-015
rhumerus 44.7 -5.04444 -41.2672
rradius 28.0222
rwrist 48.1916
rhand -27.8269 -2.56084
rfingers 7.12502
rthumb -1.21873 -32.5371
lclavicle 6.7388e-014 9.54166e-015
lhumerus -33.0141 0.650509 83.3285
lradius 53.5023
lwrist -5.63359
lhand -13.0731 25.9514
lfingers 7.12502
lthumb 13.0227 55.5249
rfemur 0.50603 -8.14552 29.5082
rtibia 3.97569e-015
rfoot -2.85927 -8.39922
rtoes 20.2087
lfemur -72.8288 -3.37551 -25.8778
ltibia 78.9546
lfoot -20.0164 -11.9408
ltoes -21.3839
235
root 3.00372 18.281 6.40257 -177.439 -19.0536 181.32
lowerback 10.5745 5.64218 4.98232
upperback 2.07354 7.88113 -0.198283
thorax -3.01406 3.81415 -3.94838
lowerneck -20.2729 -10.5922 -12.2194
upperneck 21.9876 -13.2531 7.27922
head 11.8884 -6.21875 2.40272
rclavicle 2.78299e-014 6.75868e-015
rhumerus 44.6234 -5.42934 -41.4993
rradius 28.0731
rwrist 47.7491
rhand -26.9821 -2.55094
rfingers 7.12502
rthumb -0.402817 -32.5303
lclavicle 2.78299e-014 6.75868e-015
lhumerus -33.1072 0.689798 83.348
lradius 53.9237
lwrist -5.7341
lhand -13.1107 25.898
lfingers 7.12502
lthumb 12.9865 55.4739
rfemur 0.630405 -8.2188 29.5886
rtibia -3.97569e-015
rfoot -2.87001 -8.3321
rtoes 20.0968
lfemur -72.9045 -3.60894 -25.7202
ltibia 78.6157
lfoot -19.2317 -12.2723
ltoes -21.4436
236
root 3.00331 18.2786 6.36225 -177.508 -19.0845 181.481
lowerback 10.6288 5.66934 5.09294
upperback 2.06934 7.93238 -0.162777
thorax -3.03311 3.83723 -3.98346
lowerneck -20.1478 -10.6212 -12.324
upperneck 21.8452 -13.2713 7.32381
head 11.824 -6.23286 2.43749
rclavicle -1.68967e-015 9.54166e-015
rhumerus 44.4412 -5.61118 -41.5031
rradius 28.2553
rwrist 46.9942
rhand -26.1402 -2.68945
rfingers 7.12502
rthumb 0.410328 -32.6688
lclavicle -1.68967e-015 9.54166e-015
lhumerus -33.2776 0.695242 83.3598
lradius 54.4181
lwrist -5.91243
lhand -13.1091 25.8137
lfingers 7.12502
lthumb 12.9881 55.3894
rfemur 0.769283 -8.23066 29.7803
rtibia 1.43125e-014
rfoot -2.99869 -8.2952
rtoes 19.6295
lfemur -72.9243 -3.76995 -25.4062
ltibia 78.2799
lfoot -18.0468 -12.8711
ltoes -17.9747
237
root 3.00527 18.2668 6.31597 -177.595 -19.0189 181.719
lowerback 10.6578 5.71607 5.17245
upperback 2.05792 8.00614 -0.112991
thorax -3.04983 3.87178 -3.98692
lowerneck -20.1521 -10.5925 -12.2463
upperneck 21.8 -13.2337 7.27855
head 11.7936 -6.2146 2.4168
rclavicle -6.39093e-014 -7.95139e-015
rhumerus 44.3263 -5.8777 -41.8114
rradius 28.3665
rwrist 46.6173
rhand -25.3817 -2.76572
rfingers 7.12502
rthumb 1.14294 -32.7424
lclavicle -6.39093e-014 -7.95139e-015
lhumerus -33.4753 0.675815 83.3078
lradius 54.9751
lwrist -6.06318
lhand -13.2242 25.9124
lfingers 7.12502
lthumb 12.8771 55.4952
rfemur 0.92695 -8.14216 30.0674
rtibia 0
rfoot -3.08575 -8.20548
rtoes 19.2965
lfemur -72.9053 -3.78227 -25.0282
ltibia 78.0013
lfoot -16.9623 -13.2094
ltoes -16.1659
